<?xml version="1.0" encoding="utf-8"?>
<!-- Generator: Adobe Illustrator 21.1.0, SVG Export Plug-In . SVG Version: 6.00 Build 0)  -->
<svg version="1.1" id="Layer_1" xmlns="http://www.w3.org/2000/svg" xmlns:xlink="http://www.w3.org/1999/xlink" x="0px" y="0px"
	 viewBox="0 0 100 100" style="enable-background:new 0 0 100 100;" xml:space="preserve">
<g>
	<path d="M72,6c-0.5,0-1,0.2-1.4,0.6l-44,42C26.2,48.9,26,49.5,26,50c0,0.5,0.2,1.1,0.6,1.4l44,42C71,93.8,71.5,94,72,94
		c0.5,0,1-0.2,1.4-0.6C73.8,93,74,92.5,74,92c0-0.5-0.2-1-0.6-1.4L30.9,50L73.4,9.4v0C74,8.9,74.2,8,73.9,7.2C73.6,6.5,72.8,6,72,6
		L72,6z"/>
	<path d="M72,6c-0.5,0-1,0.2-1.4,0.6l-44,42C26.2,48.9,26,49.5,26,50c0,0.5,0.2,1.1,0.6,1.4l44,42C71,93.8,71.5,94,72,94
		c0.5,0,1-0.2,1.4-0.6C73.8,93,74,92.5,74,92c0-0.5-0.2-1-0.6-1.4L30.9,50L73.4,9.4v0C74,8.9,74.2,8,73.9,7.2C73.6,6.5,72.8,6,72,6
		L72,6z"/>
</g>
</svg>
