<?xml version="1.0" encoding="UTF-8"?>
<svg width="100pt" height="100pt" version="1.1" viewBox="0 0 100 100" xmlns="http://www.w3.org/2000/svg">
 <path d="m94.273 0c-1.4648 0-2.9297 0.55859-4.0469 1.6797l-40.23 40.227-40.223-40.223c-2.2383-2.2383-5.8555-2.2383-8.0938 0-2.2383 2.2383-2.2383 5.8555 0 8.0938l40.223 40.223-40.223 40.223c-2.2383 2.2383-2.2383 5.8555 0 8.0938 1.1172 1.1172 2.582 1.6758 4.0469 1.6758 1.4648 0 2.9297-0.5625 4.0469-1.6758l40.223-40.223 40.23 40.227c1.1172 1.1172 2.582 1.6758 4.0469 1.6758 1.4648 0 2.9258-0.5625 4.0469-1.6758 2.2383-2.2383 2.2383-5.8555 0-8.0938l-40.23-40.227 40.23-40.227c2.2383-2.2383 2.2383-5.8555 0-8.0938-1.1172-1.1211-2.582-1.6797-4.0469-1.6797z"/>
</svg>
