<?xml version="1.0" encoding="utf-8"?>
<!-- Generator: Adobe Illustrator 21.1.0, SVG Export Plug-In . SVG Version: 6.00 Build 0)  -->
<svg version="1.1" id="Layer_1" xmlns="http://www.w3.org/2000/svg" xmlns:xlink="http://www.w3.org/1999/xlink" x="0px" y="0px"
	 viewBox="0 0 100 100" style="enable-background:new 0 0 100 100;" xml:space="preserve">
<g>
	<path d="M28,94c0.5,0,1-0.2,1.4-0.6l44-42c0.4-0.4,0.6-0.9,0.6-1.4c0-0.5-0.2-1.1-0.6-1.4l-44-42C29,6.2,28.5,6,28,6
		c-0.5,0-1,0.2-1.4,0.6C26.2,7,26,7.5,26,8c0,0.5,0.2,1,0.6,1.4L69.1,50L26.6,90.6v0c-0.6,0.6-0.8,1.4-0.5,2.2
		C26.4,93.5,27.2,94,28,94L28,94z"/>
	<path d="M28,94c0.5,0,1-0.2,1.4-0.6l44-42c0.4-0.4,0.6-0.9,0.6-1.4c0-0.5-0.2-1.1-0.6-1.4l-44-42C29,6.2,28.5,6,28,6
		c-0.5,0-1,0.2-1.4,0.6C26.2,7,26,7.5,26,8c0,0.5,0.2,1,0.6,1.4L69.1,50L26.6,90.6v0c-0.6,0.6-0.8,1.4-0.5,2.2
		C26.4,93.5,27.2,94,28,94L28,94z"/>
</g>
</svg>
